<svg width="1600" height="283" viewBox="0 0 1600 283" fill="none" xmlns="http://www.w3.org/2000/svg">
<g opacity="0.05" clip-path="url(#clip0_1_3833)">
<path d="M355.891 0C355.891 0 376.627 29.2867 376.627 63.7775V283H433.607V0H355.913H355.891Z" fill="#123250"/>
<path d="M824.78 0L723.356 216.204L617.082 0H536.841C536.841 0 557.555 29.2867 557.555 63.7775V283H587.699V63.4621L691.983 283H722.127L824.736 64.2731V283H881.716V0H824.736H824.78Z" fill="#123250"/>
<path d="M1569.86 0V187.458L1409.51 0H1329.27C1329.27 0 1349.98 29.2867 1349.98 63.7775V283H1380.12V60.7362L1569.83 283H1600V0H1569.83H1569.86Z" fill="#123250"/>
<path d="M253.036 82.138C253.036 18.3605 197.576 0 152.55 0H0C0 0 20.7363 29.2867 20.7363 63.7775V283H77.7163V166.101H96.0393C119.435 166.101 135.814 173.828 160.192 206.494L217.306 283H292.162L192.436 161.055C224.77 150.376 253.059 126.271 253.059 82.138H253.036ZM77.694 141.973V24.1503H132.395C163.834 24.1503 193.263 39.8074 193.263 83.9628C193.263 128.118 161.376 141.973 135.858 141.973H77.694Z" fill="#123250"/>
<path d="M1060.45 0C1060.45 0 1087.2 33.8374 1062.76 83.3546L959.12 283H991.073C1027.52 220.552 1062.94 216.497 1099.54 229.27L1208.76 283H1273.34L1130.64 0H1060.45ZM1047.25 174.842L1101.53 70.2882L1188.96 243.643L1047.27 174.842H1047.25Z" fill="#123250"/>
</g>
<defs>
<clipPath id="clip0_1_3833">
<rect width="1600" height="283" fill="white"/>
</clipPath>
</defs>
</svg>
